# xmcd CD database file
#
# Track frame offsets:
#	150
#	31390
#	48193
#	75368
#	109190
#	132365
#	174130
#	203435
#	222223
#
# Disc length: 3434 seconds
#
# Revision: 0
# Processed by: cddbd v1.5.1PL0 Copyright (c) Steve Scherf et al.
# Submitted via: CDex 1.51
#
DISCID=680d6809
DTITLE=Alvaro Is - Searching for Harmony
DYEAR=1991
DGENRE=Jazz
TTITLE0=I'm Old Fashioned
TTITLE1=Like Someone in Love
TTITLE2=I Tried So Hard
TTITLE3=I've Grown Accustomed to Her Face
TTITLE4=Come Rain or Come Shine
TTITLE5=Invitation
TTITLE6=Try a Little Tenderness
TTITLE7=My Heart Stood Still
TTITLE8='Round About Midnight
EXTD=YEAR: 1991
EXTT0=
EXTT1=
EXTT2=
EXTT3=
EXTT4=
EXTT5=
EXTT6=
EXTT7=
EXTT8=
PLAYORDER=
